HIERARCHY
ROOT Hips
{
	OFFSET 0.000000 97.167313 0.000000
	CHANNELS 6 Xposition Yposition Zposition Xrotation Yrotation Zrotation
	JOINT Spine
	{
		OFFSET 0.000000 13.784798 0.064400
		CHANNELS 3 Xrotation Yrotation Zrotation
		JOINT Spine1
		{
			OFFSET 0.000000 12.037903 0.404700
			CHANNELS 3 Xrotation Yrotation Zrotation
			JOINT Spine2
			{
				OFFSET 0.000000 17.795601 0.420200
				CHANNELS 3 Xrotation Yrotation Zrotation
				JOINT Neck
				{
					OFFSET 0.000000 39.131302 11.954600
					CHANNELS 3 Xrotation Yrotation Zrotation
					JOINT Head
					{
						OFFSET 0.000000 14.456192 15.627699
						CHANNELS 3 Xrotation Yrotation Zrotation
						JOINT HeadTop_End
						{
							OFFSET 0.000000 15.703506 7.603401
							CHANNELS 3 Xrotation Yrotation Zrotation
							End Site
							{
								OFFSET 0.000000 17.447403 0.000000
							}
						}
					}
				}
				JOINT LeftShoulder
				{
					OFFSET 17.399500 24.608795 1.168800
					CHANNELS 3 Xrotation Yrotation Zrotation
					JOINT LeftArm
					{
						OFFSET 18.980635 5.765305 1.818600
						CHANNELS 3 Xrotation Yrotation Zrotation
						JOINT LeftForeArm
						{
							OFFSET 49.290169 0.000000 0.000000
							CHANNELS 3 Xrotation Yrotation Zrotation
							JOINT LeftHand
							{
								OFFSET 31.562012 0.000000 0.000000
								CHANNELS 3 Xrotation Yrotation Zrotation
								JOINT LeftHandThumb1
								{
									OFFSET 6.133995 -4.388519 7.076070
									CHANNELS 3 Xrotation Yrotation Zrotation
									JOINT LeftHandThumb2
									{
										OFFSET 6.037666 -3.485840 3.485847
										CHANNELS 3 Xrotation Yrotation Zrotation
										JOINT LeftHandThumb3
										{
											OFFSET 6.496506 -3.750763 3.750761
											CHANNELS 3 Xrotation Yrotation Zrotation
											JOINT LeftHandThumb4
											{
												OFFSET 5.616882 -3.242905 3.242910
												CHANNELS 3 Xrotation Yrotation Zrotation
												End Site
												{
													OFFSET -1.254608 7.132141 0.375429
												}
											}
										}
									}
								}
								JOINT LeftHandPinky1
								{
									OFFSET 18.920792 -0.453171 -11.426712
									CHANNELS 3 Xrotation Yrotation Zrotation
									JOINT LeftHandPinky2
									{
										OFFSET 4.919586 0.000000 0.000000
										CHANNELS 3 Xrotation Yrotation Zrotation
										JOINT LeftHandPinky3
										{
											OFFSET 5.233047 0.000000 0.000000
											CHANNELS 3 Xrotation Yrotation Zrotation
											JOINT LeftHandPinky4
											{
												OFFSET 5.571716 0.000000 0.000000
												CHANNELS 3 Xrotation Yrotation Zrotation
												End Site
												{
													OFFSET -3.459808 4.342407 -0.466164
												}
											}
										}
									}
								}
								JOINT LeftHandRing1
								{
									OFFSET 22.726120 -0.094986 -6.500475
									CHANNELS 3 Xrotation Yrotation Zrotation
									JOINT LeftHandRing2
									{
										OFFSET 6.408615 0.000000 0.000000
										CHANNELS 3 Xrotation Yrotation Zrotation
										JOINT LeftHandRing3
										{
											OFFSET 6.150223 0.000000 0.000000
											CHANNELS 3 Xrotation Yrotation Zrotation
											JOINT LeftHandRing4
											{
												OFFSET 6.145386 0.000000 0.000000
												CHANNELS 3 Xrotation Yrotation Zrotation
												End Site
												{
													OFFSET -3.671402 4.923981 -0.202372
												}
											}
										}
									}
								}
								JOINT LeftHandMiddle1
								{
									OFFSET 23.373947 0.000000 0.000001
									CHANNELS 3 Xrotation Yrotation Zrotation
									JOINT LeftHandMiddle2
									{
										OFFSET 6.996567 0.000000 0.000000
										CHANNELS 3 Xrotation Yrotation Zrotation
										JOINT LeftHandMiddle3
										{
											OFFSET 7.015945 0.000000 0.000000
											CHANNELS 3 Xrotation Yrotation Zrotation
											JOINT LeftHandMiddle4
											{
												OFFSET 7.721573 0.000000 0.000000
												CHANNELS 3 Xrotation Yrotation Zrotation
												End Site
												{
													OFFSET -4.651108 6.158463 0.251582
												}
											}
										}
									}
								}
								JOINT LeftHandIndex1
								{
									OFFSET 21.310577 -0.490082 6.209344
									CHANNELS 3 Xrotation Yrotation Zrotation
									JOINT LeftHandIndex2
									{
										OFFSET 7.536453 0.000000 0.000000
										CHANNELS 3 Xrotation Yrotation Zrotation
										JOINT LeftHandIndex3
										{
											OFFSET 7.512344 0.000000 0.000000
											CHANNELS 3 Xrotation Yrotation Zrotation
											JOINT LeftHandIndex4
											{
												OFFSET 10.212402 0.000000 0.000001
												CHANNELS 3 Xrotation Yrotation Zrotation
												End Site
												{
													OFFSET -5.180801 8.690506 1.388433
												}
											}
										}
									}
								}
							}
						}
					}
				}
				JOINT RightShoulder
				{
					OFFSET -17.399500 24.608795 1.168800
					CHANNELS 3 Xrotation Yrotation Zrotation
					JOINT RightArm
					{
						OFFSET -18.980635 5.765305 1.818600
						CHANNELS 3 Xrotation Yrotation Zrotation
						JOINT RightForeArm
						{
							OFFSET -49.290169 0.000000 0.000000
							CHANNELS 3 Xrotation Yrotation Zrotation
							JOINT RightHand
							{
								OFFSET -31.562012 0.000000 0.000000
								CHANNELS 3 Xrotation Yrotation Zrotation
								JOINT RightHandThumb1
								{
									OFFSET -6.133995 -4.388519 7.076070
									CHANNELS 3 Xrotation Yrotation Zrotation
									JOINT RightHandThumb2
									{
										OFFSET -6.037666 -3.485840 3.485847
										CHANNELS 3 Xrotation Yrotation Zrotation
										JOINT RightHandThumb3
										{
											OFFSET -6.496506 -3.750763 3.750761
											CHANNELS 3 Xrotation Yrotation Zrotation
											JOINT RightHandThumb4
											{
												OFFSET -5.616882 -3.242905 3.242910
												CHANNELS 3 Xrotation Yrotation Zrotation
												End Site
												{
													OFFSET 1.254608 7.132141 0.375429
												}
											}
										}
									}
								}
								JOINT RightHandIndex1
								{
									OFFSET -21.310577 -0.490082 6.209344
									CHANNELS 3 Xrotation Yrotation Zrotation
									JOINT RightHandIndex2
									{
										OFFSET -7.536453 0.000000 0.000000
										CHANNELS 3 Xrotation Yrotation Zrotation
										JOINT RightHandIndex3
										{
											OFFSET -7.512344 0.000000 0.000000
											CHANNELS 3 Xrotation Yrotation Zrotation
											JOINT RightHandIndex4
											{
												OFFSET -10.212402 0.000000 0.000001
												CHANNELS 3 Xrotation Yrotation Zrotation
												End Site
												{
													OFFSET 5.180801 8.690506 1.388433
												}
											}
										}
									}
								}
								JOINT RightHandMiddle1
								{
									OFFSET -23.373947 0.000000 0.000001
									CHANNELS 3 Xrotation Yrotation Zrotation
									JOINT RightHandMiddle2
									{
										OFFSET -6.996567 0.000000 0.000000
										CHANNELS 3 Xrotation Yrotation Zrotation
										JOINT RightHandMiddle3
										{
											OFFSET -7.015945 0.000000 0.000000
											CHANNELS 3 Xrotation Yrotation Zrotation
											JOINT RightHandMiddle4
											{
												OFFSET -7.721573 0.000000 0.000000
												CHANNELS 3 Xrotation Yrotation Zrotation
												End Site
												{
													OFFSET 4.651108 6.158463 0.251582
												}
											}
										}
									}
								}
								JOINT RightHandRing1
								{
									OFFSET -22.726120 -0.094986 -6.500475
									CHANNELS 3 Xrotation Yrotation Zrotation
									JOINT RightHandRing2
									{
										OFFSET -6.408615 0.000000 0.000000
										CHANNELS 3 Xrotation Yrotation Zrotation
										JOINT RightHandRing3
										{
											OFFSET -6.150223 0.000000 0.000000
											CHANNELS 3 Xrotation Yrotation Zrotation
											JOINT RightHandRing4
											{
												OFFSET -6.145386 0.000000 0.000000
												CHANNELS 3 Xrotation Yrotation Zrotation
												End Site
												{
													OFFSET 3.671402 4.923981 -0.202372
												}
											}
										}
									}
								}
								JOINT RightHandPinky1
								{
									OFFSET -18.920792 -0.453171 -11.426712
									CHANNELS 3 Xrotation Yrotation Zrotation
									JOINT RightHandPinky2
									{
										OFFSET -4.919586 0.000000 0.000000
										CHANNELS 3 Xrotation Yrotation Zrotation
										JOINT RightHandPinky3
										{
											OFFSET -5.233047 0.000000 0.000000
											CHANNELS 3 Xrotation Yrotation Zrotation
											JOINT RightHandPinky4
											{
												OFFSET -5.571716 0.000000 0.000000
												CHANNELS 3 Xrotation Yrotation Zrotation
												End Site
												{
													OFFSET 3.459808 4.342407 -0.466164
												}
											}
										}
									}
								}
							}
						}
					}
				}
			}
		}
	}
	JOINT LeftUpLeg
	{
		OFFSET 19.899099 -7.885101 -3.429500
		CHANNELS 3 Xrotation Yrotation Zrotation
		JOINT LeftLeg
		{
			OFFSET 1.745560 -36.997807 10.304700
			CHANNELS 3 Xrotation Yrotation Zrotation
			JOINT LeftFoot
			{
				OFFSET -1.745558 -29.803308 -13.615400
				CHANNELS 3 Xrotation Yrotation Zrotation
				JOINT LeftToeBase
				{
					OFFSET 1.181900 -18.539904 15.226099
					CHANNELS 3 Xrotation Yrotation Zrotation
					JOINT LeftToe_End
					{
						OFFSET -0.863701 1.402801 16.534700
						CHANNELS 3 Xrotation Yrotation Zrotation
						End Site
						{
							OFFSET 0.000000 16.616566 0.000000
						}
					}
				}
			}
		}
	}
	JOINT RightUpLeg
	{
		OFFSET -19.899099 -7.885101 -3.429500
		CHANNELS 3 Xrotation Yrotation Zrotation
		JOINT RightLeg
		{
			OFFSET -1.745560 -36.997807 10.304700
			CHANNELS 3 Xrotation Yrotation Zrotation
			JOINT RightFoot
			{
				OFFSET 1.745558 -29.803308 -13.615400
				CHANNELS 3 Xrotation Yrotation Zrotation
				JOINT RightToeBase
				{
					OFFSET -1.181900 -18.539904 15.226099
					CHANNELS 3 Xrotation Yrotation Zrotation
					JOINT RightToe_End
					{
						OFFSET 0.863701 1.402801 16.534700
						CHANNELS 3 Xrotation Yrotation Zrotation
						End Site
						{
							OFFSET 0.000000 16.616566 0.000000
						}
					}
				}
			}
		}
	}
}
MOTION
Frames: 4
Frame Time: 0.033333
8.610729 161.917358 20.611481 43.309103 47.682623 -58.935530 18.463885 7.876089 -7.031159 7.878711 3.185702 -1.560033 10.469901 3.094776 -1.755963 5.098603 -0.613657 0.560712 5.828108 10.275865 -21.362608 -0.000001 -0.000001 -0.000000 -0.749134 -7.082832 -0.731577 25.368502 -13.570592 -17.735305 0.000037 -70.383829 0.000042 39.823981 4.251574 67.291229 -7.220050 -16.942332 15.004585 3.543394 30.192332 12.972971 -15.807737 11.240697 15.838638 0.000001 -0.000000 -0.000002 6.480929 8.816455 -75.601568 0.465009 2.289284 -22.960977 0.198064 -1.511913 14.925336 0.000003 0.000000 -0.000002 7.688859 11.710929 -48.380634 2.404389 4.730997 -53.861618 0.198049 -1.511906 14.925375 -0.000003 0.000001 0.000007 3.553690 8.009982 -49.797560 0.505275 2.382002 -23.949056 0.198061 -1.511915 14.925381 -0.000000 0.000001 0.000004 -4.181413 -2.203291 -34.236788 0.644878 2.674009 -27.113411 0.198057 -1.511921 14.925328 0.000000 -0.000000 0.000003 1.292671 23.137770 5.668265 3.052870 34.774409 24.859752 0.000021 52.050403 -0.000021 33.525342 5.350433 -52.595517 -17.856741 26.537839 -8.673206 -15.647176 -41.787005 -30.612143 13.940612 -53.240881 -3.904900 0.000000 0.000000 0.000001 2.204869 -1.557314 42.654951 0.898227 -2.751444 36.153393 0.158020 1.204125 -14.952684 -0.000000 -0.000001 -0.000003 -0.195203 -4.694047 57.680114 0.073352 -0.824197 10.171573 0.158022 1.204126 -14.952674 0.000000 0.000001 -0.000002 2.569659 -6.554374 50.288333 0.579825 -2.252340 28.869198 0.158025 1.204124 -14.952689 -0.000001 -0.000000 -0.000005 -2.240140 -21.299088 53.355218 0.211270 -1.388199 17.306287 0.158031 1.204125 -14.952698 -0.000001 0.000000 0.000000 -58.148078 2.915009 -0.583404 38.558433 -4.741625 5.275640 23.982647 -7.957557 9.422368 -0.006536 0.000026 -0.000005 -0.000001 -0.000004 0.000003 -57.449220 -11.005218 -8.917533 80.788905 -0.139168 5.576666 12.478427 0.846740 8.791615 -3.540072 0.000009 -0.000004 -0.000000 0.000001 0.000001 
10.925690 166.706268 21.683214 55.004155 46.969732 -72.913116 16.000364 7.052164 -3.357184 9.878404 2.866895 -1.111241 12.228906 2.835153 -1.199281 4.907389 -0.718021 0.341563 3.509365 7.903774 -20.118358 -0.000000 -0.000000 -0.000000 -0.325946 -7.927877 -2.013916 18.731924 -19.807016 -16.089899 0.000052 -61.180511 0.000066 42.965025 2.938261 69.807866 -7.220061 -16.942329 15.004575 3.543386 30.192336 12.972986 -15.807740 11.240698 15.838650 0.000003 0.000001 -0.000001 6.480918 8.816441 -75.601581 0.465000 2.289274 -22.960996 0.198071 -1.511916 14.925333 0.000001 -0.000001 -0.000007 7.688862 11.710930 -48.380634 2.404389 4.730995 -53.861632 0.198061 -1.511911 14.925348 -0.000000 0.000001 0.000007 3.553683 8.009982 -49.797553 0.505277 2.382008 -23.949061 0.198054 -1.511909 14.925358 -0.000002 0.000000 0.000009 -4.181419 -2.203298 -34.236784 0.644877 2.674012 -27.113409 0.198059 -1.511913 14.925343 -0.000001 0.000001 0.000001 0.764807 24.147253 8.722618 -1.790758 34.964124 25.442277 0.000016 42.204463 -0.000001 35.291526 8.460783 -58.302208 -17.856734 26.537846 -8.673229 -15.647151 -41.787029 -30.612119 13.940618 -53.240894 -3.904878 0.000000 -0.000000 -0.000002 2.204879 -1.557315 42.654931 0.898222 -2.751441 36.153404 0.158020 1.204129 -14.952688 -0.000001 -0.000001 -0.000002 -0.195200 -4.694050 57.680121 0.073352 -0.824197 10.171571 0.158025 1.204120 -14.952727 -0.000000 -0.000000 -0.000009 2.569661 -6.554374 50.288296 0.579828 -2.252340 28.869195 0.158028 1.204130 -14.952679 -0.000000 0.000001 -0.000003 -2.240149 -21.299089 53.355208 0.211262 -1.388197 17.306270 0.158036 1.204124 -14.952681 0.000000 -0.000001 0.000004 -64.156049 -0.040073 7.307168 36.172996 -4.847941 0.964112 32.591136 -0.520591 -4.627352 0.650652 -0.000005 -0.000000 0.000003 0.000001 0.000000 -65.221975 -17.930483 -12.580072 102.597501 1.966449 4.213589 -9.491403 -1.070677 9.302392 -7.200179 -0.000007 0.000010 -0.000003 0.000000 0.000001 
14.497780 174.392258 22.158056 67.150691 43.819632 -86.079542 17.600330 5.632680 -0.999857 9.785137 2.518981 -0.399475 11.893174 2.541628 -0.493142 4.358087 -0.868090 0.349547 -1.851382 5.671072 -19.068860 -0.000000 0.000000 -0.000001 0.086216 -9.194581 -3.748283 11.921153 -28.127745 -14.611740 0.000011 -48.745564 -0.000011 46.483768 1.100756 73.954829 -7.220059 -16.942344 15.004573 3.543397 30.192332 12.972971 -15.807751 11.240695 15.838647 0.000002 0.000001 0.000000 6.480918 8.816445 -75.601581 0.465003 2.289273 -22.960999 0.198062 -1.511915 14.925348 -0.000000 0.000001 -0.000004 7.688853 11.710920 -48.380638 2.404389 4.731007 -53.861595 0.198067 -1.511918 14.925338 0.000000 0.000002 0.000005 3.553686 8.009976 -49.797581 0.505272 2.382013 -23.949032 0.198057 -1.511917 14.925338 -0.000001 0.000000 0.000006 -4.181409 -2.203316 -34.236794 0.644887 2.674016 -27.113382 0.198054 -1.511912 14.925341 -0.000003 0.000002 0.000002 0.188553 24.510399 11.799621 -6.662574 39.005452 24.917778 0.000003 26.554437 -0.000004 34.781984 13.180359 -64.802909 -17.856732 26.537850 -8.673224 -15.647159 -41.787012 -30.612126 13.940627 -53.240874 -3.904890 -0.000001 -0.000003 0.000001 2.204878 -1.557313 42.654897 0.898221 -2.751440 36.153421 0.158023 1.204128 -14.952683 0.000001 -0.000001 -0.000001 -0.195200 -4.694049 57.680101 0.073352 -0.824199 10.171576 0.158026 1.204126 -14.952693 0.000001 -0.000000 -0.000004 2.569661 -6.554373 50.288326 0.579826 -2.252338 28.869191 0.158027 1.204126 -14.952686 0.000000 -0.000000 -0.000003 -2.240145 -21.299091 53.355211 0.211271 -1.388201 17.306303 0.158033 1.204122 -14.952691 0.000000 -0.000001 -0.000001 -65.101368 -2.103143 12.781836 32.992874 4.189449 -2.921687 32.342817 2.923092 -11.043361 9.540960 0.000005 -0.000012 0.000002 -0.000001 -0.000000 -73.391796 -34.069004 -11.493783 118.364351 -3.419994 -5.377238 -30.121711 -3.736702 8.090635 -6.492018 -0.000006 0.000014 0.000002 0.000001 0.000000 
19.799423 184.052338 21.818253 75.036813 40.318695 -95.562461 26.038949 6.568823 -0.506081 6.809667 2.697356 0.266977 8.685613 2.766450 0.006383 3.352301 -1.160268 0.559941 -7.961454 3.063136 -18.571873 -0.000000 0.000000 -0.000002 0.418140 -10.820932 -5.816782 5.487032 -38.054170 -12.605463 0.000020 -34.853059 -0.000007 50.923141 -1.170143 78.522054 -7.220049 -16.942332 15.004577 3.543390 30.192325 12.972974 -15.807754 11.240690 15.838652 0.000001 -0.000001 -0.000001 6.480919 8.816437 -75.601561 0.465006 2.289275 -22.960999 0.198062 -1.511908 14.925360 0.000002 0.000001 -0.000000 7.688860 11.710924 -48.380641 2.404389 4.731000 -53.861622 0.198054 -1.511907 14.925357 0.000000 -0.000002 -0.000000 3.553691 8.009977 -49.797567 0.505274 2.382016 -23.949022 0.198057 -1.511922 14.925311 -0.000002 0.000000 0.000001 -4.181417 -2.203308 -34.236805 0.644894 2.674008 -27.113390 0.198059 -1.511924 14.925324 -0.000000 0.000001 0.000001 -0.587674 24.597618 15.889697 -10.821659 48.286459 22.822336 0.000006 0.000022 0.000004 33.797419 25.325114 -72.015213 -18.704705 26.702686 -10.643205 -13.877622 -44.144424 -28.192197 12.605246 -49.752481 -6.388202 -0.000001 -0.000001 0.000001 2.119020 -1.298093 39.582005 0.822200 -2.644368 34.538419 0.122003 1.060138 -13.129868 -0.000000 0.000000 0.000001 -0.589044 -4.200886 54.106935 0.067973 -0.793640 9.790616 0.158027 1.204125 -14.952712 -0.000000 -0.000001 -0.000006 1.985567 -6.116032 46.486930 0.578120 -2.249241 28.825724 0.158029 1.204125 -14.952681 -0.000001 -0.000000 -0.000003 -2.428387 -20.801920 48.885187 0.242371 -1.484319 18.547218 0.102946 0.974790 -12.056091 -0.000002 -0.000002 0.000002 -65.161849 -1.881219 11.869691 28.207655 3.791224 -4.444903 35.393272 3.672519 -9.340169 10.864861 0.000014 0.000010 -0.000002 0.000001 -0.000001 -79.237489 -46.571809 -2.572361 123.215288 -21.462411 -17.888675 -37.984683 -13.584805 15.339336 1.307647 0.000003 -0.000009 -0.000002 -0.000002 0.000002 
